<svg width="16" height="16" viewBox="0 0 16 16" fill="none" xmlns="http://www.w3.org/2000/svg">
<path d="M7.77778 3.55556C8.12939 3.55556 8.4731 3.45129 8.76546 3.25595C9.05781 3.0606 9.28568 2.78295 9.42023 2.4581C9.55479 2.13326 9.58999 1.77581 9.5214 1.43095C9.4528 1.0861 9.28348 0.769326 9.03486 0.5207C8.78623 0.272073 8.46946 0.102756 8.12461 0.0341603C7.77975 -0.0344356 7.4223 0.000770277 7.09745 0.135326C6.77261 0.269882 6.49496 0.497744 6.29961 0.790098C6.10427 1.08245 6 1.42617 6 1.77778C6 2.24927 6.1873 2.70146 6.5207 3.03486C6.8541 3.36826 7.30628 3.55556 7.77778 3.55556ZM7.77778 12.4444C7.42617 12.4444 7.08245 12.5487 6.7901 12.7441C6.49774 12.9394 6.26988 13.217 6.13533 13.5419C6.00077 13.8667 5.96556 14.2242 6.03416 14.569C6.10276 14.9139 6.27207 15.2307 6.5207 15.4793C6.76933 15.7279 7.0861 15.8972 7.43095 15.9658C7.77581 16.0344 8.13326 15.9992 8.4581 15.8647C8.78295 15.7301 9.0606 15.5023 9.25595 15.2099C9.45129 14.9175 9.55556 14.5738 9.55556 14.2222C9.55556 13.7507 9.36825 13.2985 9.03486 12.9651C8.70146 12.6317 8.24927 12.4444 7.77778 12.4444ZM7.77778 6.22222C7.42617 6.22222 7.08245 6.32649 6.7901 6.52183C6.49774 6.71718 6.26988 6.99483 6.13533 7.31967C6.00077 7.64452 5.96556 8.00197 6.03416 8.34683C6.10276 8.69168 6.27207 9.00845 6.5207 9.25708C6.76933 9.5057 7.0861 9.67502 7.43095 9.74362C7.77581 9.81221 8.13326 9.77701 8.4581 9.64245C8.78295 9.5079 9.0606 9.28003 9.25595 8.98768C9.45129 8.69533 9.55556 8.35161 9.55556 8C9.55556 7.5285 9.36825 7.07632 9.03486 6.74292C8.70146 6.40952 8.24927 6.22222 7.77778 6.22222Z" fill="#686687"/>
</svg>
