<svg width="16" height="16" viewBox="0 0 16 16" fill="none" xmlns="http://www.w3.org/2000/svg">
<g clip-path="url(#clip0_10138_5057)">
<path d="M1.77778 1.77778H7.11111C7.6 1.77778 8 1.37778 8 0.888889C8 0.4 7.6 0 7.11111 0H1.77778C0.8 0 0 0.8 0 1.77778V14.2222C0 15.2 0.8 16 1.77778 16H7.11111C7.6 16 8 15.6 8 15.1111C8 14.6222 7.6 14.2222 7.11111 14.2222H1.77778V1.77778Z" fill="#8E96A0"/>
<path d="M15.6895 7.68892L13.2095 5.20892C12.9251 4.92447 12.4451 5.12003 12.4451 5.52003V7.11114H6.22287C5.73398 7.11114 5.33398 7.51114 5.33398 8.00003C5.33398 8.48892 5.73398 8.88892 6.22287 8.88892H12.4451V10.48C12.4451 10.88 12.9251 11.0756 13.2007 10.7911L15.6807 8.31114C15.8584 8.14225 15.8584 7.8578 15.6895 7.68892Z" fill="#8E96A0"/>
</g>
<defs>
<clipPath id="clip0_10138_5057">
<rect width="16" height="16" fill="white"/>
</clipPath>
</defs>
</svg>
