<svg width="14" height="14" viewBox="0 0 14 14" fill="none" xmlns="http://www.w3.org/2000/svg">
<g clip-path="url(#clip0_10138_5584)">
<path d="M2.98188 14C2.58838 14 2.24714 13.8555 1.95816 13.5665C1.66918 13.2776 1.5247 12.9363 1.5247 12.5428V2.21344H1.3218C1.11275 2.21344 0.93752 2.14273 0.796106 2.00132C0.654691 1.8599 0.583984 1.68467 0.583984 1.47563C0.583984 1.26658 0.654691 1.09135 0.796106 0.949934C0.93752 0.80852 1.11275 0.737813 1.3218 0.737813H4.51284C4.51284 0.528766 4.58354 0.353535 4.72496 0.212121C4.86637 0.070707 5.0416 0 5.25065 0H8.97661C9.18565 0 9.36396 0.0737813 9.51152 0.221344C9.65908 0.368906 9.73286 0.541063 9.73286 0.737813H12.9055C13.1145 0.737813 13.2897 0.80852 13.4312 0.949934C13.5726 1.09135 13.6433 1.26658 13.6433 1.47563C13.6433 1.68467 13.5726 1.8599 13.4312 2.00132C13.2897 2.14273 13.1145 2.21344 12.9055 2.21344H12.7026V12.5428C12.7026 12.9363 12.5581 13.2776 12.2691 13.5665C11.9801 13.8555 11.6389 14 11.2454 14H2.98188ZM2.98188 2.21344V12.5428H11.2454V2.21344H2.98188ZM4.90019 10.4032C4.90019 10.5753 4.96167 10.7229 5.08464 10.8458C5.20761 10.9688 5.35517 11.0303 5.52733 11.0303C5.71178 11.0303 5.8655 10.9688 5.98846 10.8458C6.11143 10.7229 6.17292 10.5753 6.17292 10.4032V4.33465C6.17292 4.1502 6.10836 3.99341 5.97924 3.8643C5.85012 3.73518 5.69949 3.67062 5.52733 3.67062C5.34288 3.67062 5.19224 3.73518 5.07542 3.8643C4.9586 3.99341 4.90019 4.1502 4.90019 4.33465V10.4032ZM8.05434 10.4032C8.05434 10.5753 8.1189 10.7229 8.24802 10.8458C8.37713 10.9688 8.52777 11.0303 8.69993 11.0303C8.88438 11.0303 9.03809 10.9688 9.16106 10.8458C9.28403 10.7229 9.34551 10.5753 9.34551 10.4032V4.33465C9.34551 4.1502 9.28095 3.99341 9.15184 3.8643C9.02272 3.73518 8.87208 3.67062 8.69993 3.67062C8.51547 3.67062 8.36176 3.73518 8.23879 3.8643C8.11582 3.99341 8.05434 4.1502 8.05434 4.33465V10.4032ZM2.98188 2.21344V12.5428V2.21344Z" fill="#686687"/>
</g>
<defs>
<clipPath id="clip0_10138_5584">
<rect width="14" height="14" fill="white"/>
</clipPath>
</defs>
</svg>
