<svg width="14" height="14" viewBox="0 0 14 14" fill="none" xmlns="http://www.w3.org/2000/svg">
<g clip-path="url(#clip0_10138_5576)">
<path d="M1.26996 12.7283H1.97128L10.2924 4.38824L9.5721 3.68692L1.26996 12.008V12.7283ZM12.8702 3.59215L10.3872 1.10908L11.1453 0.350899C11.3854 0.110806 11.6792 -0.00608093 12.0267 0.000237286C12.3742 0.00655551 12.6744 0.129761 12.9271 0.369853L13.6474 1.07118C13.9001 1.3239 14.017 1.62086 13.998 1.96204C13.9791 2.30323 13.8495 2.59387 13.6094 2.83396L12.8702 3.59215ZM0.758186 13.9793C0.543367 13.9793 0.363298 13.9066 0.217979 13.7613C0.0726596 13.616 0 13.4359 0 13.2211V11.8185C0 11.7174 0.0189547 11.6226 0.056864 11.5341C0.0947733 11.4457 0.151637 11.3636 0.227456 11.2877L9.59106 1.90518L12.0741 4.36929L2.71052 13.7518C2.6347 13.8277 2.5494 13.8845 2.45463 13.9224C2.35986 13.9603 2.26192 13.9793 2.16083 13.9793H0.758186ZM9.9512 4.0281L9.5721 3.68692L10.2924 4.38824L9.9512 4.0281Z" fill="#686687"/>
</g>
<defs>
<clipPath id="clip0_10138_5576">
<rect width="14" height="14" fill="white"/>
</clipPath>
</defs>
</svg>
