<svg width="14" height="14" viewBox="0 0 14 14" fill="none" xmlns="http://www.w3.org/2000/svg">
<path d="M7 9.93109C7.74457 9.93109 8.3764 9.67154 8.89551 9.15243C9.41461 8.63333 9.67416 8.0015 9.67416 7.25693C9.67416 6.51236 9.41461 5.88052 8.89551 5.36142C8.3764 4.84232 7.74457 4.58277 7 4.58277C6.25543 4.58277 5.6236 4.84232 5.10449 5.36142C4.58539 5.88052 4.32584 6.51236 4.32584 7.25693C4.32584 8.0015 4.58539 8.63333 5.10449 9.15243C5.6236 9.67154 6.25543 9.93109 7 9.93109ZM7 8.87715C6.54906 8.87715 6.16629 8.71985 5.85169 8.40524C5.53708 8.09064 5.37978 7.70786 5.37978 7.25693C5.37978 6.80599 5.53708 6.42322 5.85169 6.10861C6.16629 5.79401 6.54906 5.6367 7 5.6367C7.45094 5.6367 7.83371 5.79401 8.14831 6.10861C8.46292 6.42322 8.62022 6.80599 8.62022 7.25693C8.62022 7.70786 8.46292 8.09064 8.14831 8.40524C7.83371 8.71985 7.45094 8.87715 7 8.87715ZM7 12.1805C5.52135 12.1805 4.17378 11.7742 2.9573 10.9614C1.74082 10.1487 0.79176 9.08689 0.110112 7.77603C0.0786517 7.70262 0.0524345 7.62135 0.0314607 7.53221C0.0104869 7.44307 0 7.35131 0 7.25693C0 7.16255 0.0104869 7.06816 0.0314607 6.97378C0.0524345 6.8794 0.0786517 6.80075 0.110112 6.73783C0.79176 5.42697 1.74082 4.36517 2.9573 3.55243C4.17378 2.7397 5.52135 2.33333 7 2.33333C8.47865 2.33333 9.82622 2.7397 11.0427 3.55243C12.2592 4.36517 13.2082 5.42697 13.8899 6.73783C13.9213 6.80075 13.9476 6.8794 13.9685 6.97378C13.9895 7.06816 14 7.16255 14 7.25693C14 7.35131 13.9895 7.44307 13.9685 7.53221C13.9476 7.62135 13.9213 7.70262 13.8899 7.77603C13.2082 9.08689 12.2592 10.1487 11.0427 10.9614C9.82622 11.7742 8.47865 12.1805 7 12.1805ZM7 11.0322C8.26891 11.0322 9.43296 10.6888 10.4921 10.0019C11.5513 9.31498 12.3588 8.4 12.9146 7.25693C12.3588 6.11386 11.5513 5.19888 10.4921 4.51198C9.43296 3.82509 8.26891 3.48165 7 3.48165C5.73109 3.48165 4.56704 3.82509 3.50787 4.51198C2.44869 5.19888 1.63596 6.11386 1.06966 7.25693C1.63596 8.4 2.44869 9.31498 3.50787 10.0019C4.56704 10.6888 5.73109 11.0322 7 11.0322Z" fill="#686687"/>
</svg>
